<svg id="Calque_1" data-name="Calque 1" xmlns="http://www.w3.org/2000/svg" xmlns:xlink="http://www.w3.org/1999/xlink" viewBox="0 0 800 1000"><defs><style>.cls-1{fill:url(#Dégradé_sans_nom_11);}</style><linearGradient id="Dégradé_sans_nom_11" y1="500" x2="800" y2="500" gradientUnits="userSpaceOnUse"><stop offset="0" stop-color="#ffe362"/><stop offset="1" stop-color="#f58c20"/></linearGradient></defs><title>doubleS_yellowGradientSVG</title><path class="cls-1" d="M749.6,393.65q-50.42-52.59-150.24-86.85-63.2-27.9-88.75-50.65t-25.56-58q0-38.16,22.91-63.36t63.91-25.2q43.88,0,68,30.33T664,219.21H798.07c1.28-62.3-19-116.86-60.77-157.8S641.15,0,574.28,0Q475.4,0,411.74,55.05T348.07,197.68q0,75.34,39.63,122.17Q316.91,267,222.35,267q-100.8,0-161.58,52.36T0,464.21q0,89.54,50.4,142.14T200.64,693.2q63.2,27.9,88.75,50.65t25.56,58Q315,840,292,865.19t-63.91,25.2q-43.87,0-68-30.33T136,780.79H1.93c-1.28,62.3,19,116.86,60.77,157.8s96.15,61.41,163,61.41q98.88,0,162.54-55t63.67-142.63q0-75.35-39.63-122.18Q483.09,733,577.65,733q100.8,0,161.58-52.36T800,535.79Q800,446.26,749.6,393.65ZM233,576.75Q179.43,553.26,158.2,529T137,463.23q0-40.14,21-63.61t64.39-23.49q55.47,0,83,28.87t27.5,94.93c-1.33,60.84,14.36,112.14,47.19,150.49Q326.42,609.75,233,576.75ZM642,600.38q-21,23.49-64.39,23.49-55.47,0-82.95-28.87t-27.5-94.93c1.33-60.84-14.36-112.14-47.19-150.49q53.57,40.67,147,73.67Q620.58,446.74,641.8,471T663,536.77Q663,576.91,642,600.38Z"/></svg>