<svg id="Calque_1" data-name="Calque 1" xmlns="http://www.w3.org/2000/svg" viewBox="0 0 800 1000"><defs><style>.cls-1{fill:#111;}</style></defs><title>black_on_white copie</title><path class="cls-1" d="M736.24,397.71q-48.48-50.58-144.5-83.53Q531,287.36,506.39,265.47T481.8,209.7q0-36.7,22-60.94t61.47-24.24q42.21,0,65.41,29.18t23.19,76.24h129c1.24-59.92-18.25-112.4-58.45-151.77S631.94,19.1,567.62,19.1q-95.1,0-156.33,53T350.06,209.23q0,72.47,38.11,117.51-68.09-50.82-159-50.83-96.94,0-155.4,50.36T15.28,465.57q0,86.13,48.48,136.72t144.5,83.53q60.78,26.82,85.35,48.71T318.2,790.3q0,36.71-22,60.94T234.7,875.48q-42.21,0-65.41-29.18T146.1,770.06h-129C15.9,830,35.39,882.46,75.59,921.83s92.47,59.07,156.79,59.07q95.1,0,156.33-52.95t61.23-137.18q0-72.46-38.11-117.51,68.07,50.82,159,50.83,96.95,0,155.4-50.36t58.45-139.3Q784.72,448.3,736.24,397.71Zm-496.9,176.1q-51.5-22.59-71.9-45.88T147,464.63q0-38.6,20.17-61.18t61.93-22.59q53.36,0,79.79,27.77t26.44,91.3c-1.27,58.52,13.81,107.86,45.4,144.74Q329.24,605.57,239.34,573.81ZM632.8,596.55q-20.19,22.59-61.93,22.59-53.36,0-79.79-27.77t-26.44-91.3c1.27-58.52-13.81-107.86-45.39-144.74q51.51,39.1,141.41,70.86,51.5,22.59,71.9,45.88T653,535.37Q653,574,632.8,596.55Z"/></svg>